<mxfile host="app.diagrams.net" modified="2023-03-15T01:42:19.479Z" agent="5.0 (Windows NT 10.0; Win64; x64) AppleWebKit/537.36 (KHTML, like Gecko) Chrome/111.0.0.0 Safari/537.36" etag="eQFy0hQ2OgS_grQLkkb6" version="21.0.6" type="github">
  <diagram name="第 1 页" id="8NZPt4BKL3ZUkq8rwfjg">
    <mxGraphModel dx="819" dy="473" grid="1" gridSize="10" guides="1" tooltips="1" connect="1" arrows="1" fold="1" page="1" pageScale="1" pageWidth="827" pageHeight="1169" math="0" shadow="0">
      <root>
        <mxCell id="0" />
        <mxCell id="1" parent="0" />
        <mxCell id="93vt35J30JlQjtE3s2DI-6" value="" style="verticalLabelPosition=bottom;verticalAlign=top;html=1;shape=mxgraph.basic.rect;fillColor2=none;strokeWidth=1;size=20;indent=5;" vertex="1" parent="1">
          <mxGeometry x="230" y="80" width="260" height="90" as="geometry" />
        </mxCell>
        <mxCell id="93vt35J30JlQjtE3s2DI-4" value="" style="edgeStyle=orthogonalEdgeStyle;rounded=0;orthogonalLoop=1;jettySize=auto;html=1;" edge="1" parent="1" source="93vt35J30JlQjtE3s2DI-1" target="93vt35J30JlQjtE3s2DI-2">
          <mxGeometry relative="1" as="geometry" />
        </mxCell>
        <mxCell id="93vt35J30JlQjtE3s2DI-1" value="∑&lt;sub&gt;1&lt;/sub&gt;" style="ellipse;whiteSpace=wrap;html=1;aspect=fixed;" vertex="1" parent="1">
          <mxGeometry x="250" y="97.5" width="60" height="60" as="geometry" />
        </mxCell>
        <mxCell id="93vt35J30JlQjtE3s2DI-5" value="" style="edgeStyle=orthogonalEdgeStyle;rounded=0;orthogonalLoop=1;jettySize=auto;html=1;" edge="1" parent="1" source="93vt35J30JlQjtE3s2DI-2" target="93vt35J30JlQjtE3s2DI-3">
          <mxGeometry relative="1" as="geometry" />
        </mxCell>
        <mxCell id="93vt35J30JlQjtE3s2DI-2" value="&lt;font style=&quot;font-size: 18px;&quot;&gt;t&lt;/font&gt;" style="rounded=0;whiteSpace=wrap;html=1;" vertex="1" parent="1">
          <mxGeometry x="350" y="95" width="20" height="65" as="geometry" />
        </mxCell>
        <mxCell id="93vt35J30JlQjtE3s2DI-3" value="∑&lt;sub&gt;2&lt;/sub&gt;" style="ellipse;whiteSpace=wrap;html=1;aspect=fixed;" vertex="1" parent="1">
          <mxGeometry x="414" y="97.5" width="60" height="60" as="geometry" />
        </mxCell>
      </root>
    </mxGraphModel>
  </diagram>
</mxfile>
